<?xml version="1.0" encoding="UTF-8"?>
<svg id="Camada_2" data-name="Camada 2" xmlns="http://www.w3.org/2000/svg" viewBox="0 0 100.51 65.49">
  <g id="Camada_1-2" data-name="Camada 1-2">
    <g>
      <g style="isolation: isolate;">
        <g style="isolation: isolate;">
          <path d="m11.43,49.39c0-1.56.15-3.56.46-5.99.3-2.43.67-5.12,1.11-8.07.43-2.95.86-6.03,1.27-9.24.41-3.21.77-6.42,1.07-9.63.3-3.21.46-6.27.46-9.17,0-1.65-.08-3.09-.23-4.33s-.38-2.18-.68-2.83c2.04.13,3.76.58,5.17,1.37,1.41.78,2.49,1.83,3.25,3.16.76,1.32,1.14,2.92,1.14,4.78s-.18,4.06-.55,6.83c-.37,2.78-.8,5.89-1.3,9.34-.5,3.45-.93,7.11-1.3,11-.37,3.88-.55,7.84-.55,11.87,0,1,.02,2.03.06,3.09.04,1.06.15,2.16.33,3.29-.52.04-1.01.08-1.46.1-.46.02-.88.03-1.27.03-2.47,0-4.25-.43-5.33-1.3-1.08-.87-1.63-2.3-1.63-4.29ZM23.01,5.67c1.86-1.13,3.78-1.92,5.76-2.38,1.97-.46,3.78-.68,5.43-.68,3.04,0,5.54.61,7.51,1.82,1.97,1.21,3.45,2.8,4.42,4.75.98,1.95,1.46,4.08,1.46,6.38,0,2.13-.42,4.25-1.27,6.38-.85,2.13-2.09,4.08-3.74,5.86-1.65,1.78-3.69,3.2-6.12,4.26-2.43,1.06-5.25,1.59-8.46,1.59-.61,0-1.21-.02-1.82-.07-.61-.04-1.24-.11-1.89-.2l-.2-2.73c2.95,0,5.4-.41,7.35-1.24,1.95-.82,3.5-1.92,4.65-3.29,1.15-1.37,1.97-2.86,2.47-4.49.5-1.63.75-3.24.75-4.85s-.33-3.01-.98-4.36c-.65-1.34-1.64-2.42-2.96-3.22-1.32-.8-3-1.2-5.04-1.2-.91,0-1.9.12-2.96.36-1.06.24-2.18.6-3.35,1.07l-1.04-3.77Z" style="fill: #336535;"/>
        </g>
      </g>
      <g style="isolation: isolate;">
        <g style="isolation: isolate;">
          <path d="m34.31,43.05c.56-1.69,1.17-3.04,1.82-4.05.65-1.01,1.3-1.73,1.95-2.16s1.24-.65,1.76-.65c.63,0,1.14.17,1.54.52.4.35.7.8.91,1.35.21.55.31,1.14.31,1.77,0,.72-.12,1.43-.37,2.13-.25.71-.63,1.29-1.15,1.76-.52.47-1.21.7-2.08.7-.22,0-.42-.02-.62-.05-.2-.03-.38-.09-.55-.18.2-.3.4-.72.62-1.24.22-.52.34-1.05.36-1.59.04-.37,0-.67-.11-.91-.12-.24-.35-.36-.7-.36-.39,0-.83.28-1.32.85-.49.56-.95,1.37-1.4,2.42-.44,1.05-.81,2.33-1.09,3.82-.28,1.5-.42,3.18-.42,5.04,0,.43.02.88.07,1.33.04.46.08.93.1,1.43-.26.02-.5.04-.72.05-.22.01-.42.02-.62.02-1.24,0-2.13-.22-2.67-.65-.54-.43-.81-1.15-.81-2.15,0-.48.07-1.16.21-2.03.14-.88.3-1.87.47-2.98.17-1.11.33-2.25.47-3.43.14-1.18.21-2.31.21-3.4,0-.85-.04-1.68-.13-2.5-.09-.82-.23-1.62-.42-2.38,1.69.54,2.82,1.29,3.4,2.25.57.95.86,2.06.86,3.32,0,.22-.01.5-.03.85-.02.35-.05.71-.1,1.07l.26.03Z" style="fill: #cd6b03;"/>
          <path d="m50.55,55.47c-.85,0-1.69-.17-2.52-.5-.83-.34-1.59-.85-2.26-1.54-.67-.69-1.21-1.58-1.63-2.65-.41-1.07-.62-2.35-.62-3.82,0-1.8.3-3.48.91-5.04s1.46-2.88,2.55-3.97c1.09-1.08,2.39-1.81,3.89-2.18.24,0,.46.07.65.2s.3.28.33.46c-.8.48-1.57,1.18-2.29,2.1s-1.24,2.1-1.54,3.53l.2.07c.61-1.52,1.33-2.69,2.16-3.53.83-.83,1.7-1.42,2.59-1.76.89-.34,1.68-.5,2.38-.5.95,0,1.81.28,2.55.85s1.34,1.37,1.79,2.42c.44,1.05.67,2.32.67,3.79,0,1.39-.18,2.79-.55,4.21-.37,1.42-.94,2.73-1.72,3.92-.78,1.19-1.79,2.15-3.04,2.88-1.25.73-2.74,1.09-4.47,1.09Zm.72-2.34c.78,0,1.47-.27,2.08-.81s1.12-1.26,1.54-2.16c.42-.9.74-1.9.96-2.99s.33-2.18.33-3.27c0-1.93-.24-3.28-.72-4.05-.48-.77-1.08-1.16-1.82-1.16s-1.4.27-2.07.8c-.66.53-1.24,1.23-1.74,2.1-.5.87-.89,1.83-1.19,2.88s-.44,2.09-.44,3.11.1,1.95.31,2.8.53,1.52.98,2.02c.44.5,1.04.75,1.77.75Z" style="fill: #cd6b03;"/>
          <path d="m68.24,47.63c0,1.78.28,3.13.83,4.05s1.34,1.38,2.36,1.38c.8,0,1.63-.28,2.47-.83.85-.55,1.59-1.34,2.24-2.36.37.09.66.23.86.44s.31.46.31.76c-.67,1.15-1.44,2.04-2.29,2.68-.86.64-1.72,1.08-2.6,1.33-.88.25-1.69.37-2.42.37-1.08,0-2.12-.27-3.11-.81-.99-.54-1.78-1.38-2.39-2.52-.61-1.14-.91-2.59-.91-4.34,0-1.52.22-2.97.65-4.36.43-1.39,1.06-2.62,1.89-3.71.82-1.08,1.84-1.94,3.06-2.57,1.21-.63,2.6-.94,4.16-.94,1.19,0,2.16.2,2.89.6s1.28.92,1.63,1.56c.35.64.52,1.31.52,2s-.15,1.32-.46,1.95-.73,1.14-1.27,1.54c-.54.4-1.18.6-1.92.6-.24,0-.49-.03-.75-.08-.26-.05-.53-.13-.81-.24.26-.3.52-.81.78-1.51.26-.71.41-1.4.46-2.1.04-.63-.05-1.17-.28-1.63-.23-.46-.68-.68-1.35-.68-.72,0-1.36.29-1.92.86-.56.57-1.04,1.32-1.43,2.24-.39.92-.69,1.94-.89,3.04-.21,1.11-.31,2.19-.31,3.25Zm1.59,8.65c1.37.09,2.42.44,3.17,1.07.75.63,1.12,1.49,1.12,2.57,0,1.26-.41,2.4-1.24,3.43-.82,1.03-1.91,1.74-3.25,2.13-.54-.22-.97-.56-1.29-1.04-.31-.48-.47-1.05-.47-1.72,1.02-.17,1.83-.54,2.44-1.09.61-.55.91-1.19.91-1.9,0-1.04-.64-1.79-1.92-2.24.02-.24.07-.44.15-.62.08-.17.2-.37.37-.59Z" style="fill: #cd6b03;"/>
          <path d="m92.96,49.39c-.43,1.15-1.04,2.17-1.82,3.07-.78.9-1.65,1.61-2.62,2.13s-1.95.78-2.94.78c-1.43,0-2.56-.57-3.4-1.71-.84-1.14-1.25-2.66-1.25-4.57,0-1.63.25-3.17.75-4.64s1.19-2.76,2.07-3.9c.88-1.14,1.88-2.04,3.01-2.7,1.13-.66,2.31-.99,3.55-.99.54,0,1.04.05,1.5.16.46.11.83.27,1.14.49-.98.35-1.9.9-2.77,1.66-.87.76-1.63,1.66-2.29,2.7-.66,1.04-1.18,2.15-1.56,3.33-.38,1.18-.57,2.37-.57,3.56,0,1.11.2,1.97.59,2.59.39.62.93.93,1.63.93.76,0,1.5-.34,2.21-1.02.72-.68,1.35-1.61,1.9-2.78s.99-2.5,1.32-3.99c.33-1.49.49-3.03.49-4.63,0-.67-.02-1.3-.05-1.89-.03-.58-.08-1.07-.15-1.46.2-.04.38-.07.55-.07h.88c1.13,0,1.96.22,2.49.65.53.43.8,1.11.8,2.02,0,.56-.08,1.29-.23,2.18-.15.89-.33,1.89-.54,2.99-.21,1.11-.39,2.27-.55,3.48-.16,1.21-.24,2.42-.24,3.61,0,.93.08,1.74.23,2.42.15.68.41,1.44.78,2.26-1.71-.33-2.93-.95-3.64-1.89-.72-.93-1.07-2.35-1.07-4.26v-.28c0-.05.01-.11.03-.18l-.2-.06Z" style="fill: #cd6b03;"/>
        </g>
      </g>
      <g style="isolation: isolate;">
        <g style="isolation: isolate;">
          <path d="m53.9,33.15c-1.3,0-2.43-.33-3.4-.98-.97-.65-1.71-1.57-2.23-2.76s-.78-2.59-.78-4.2.25-3.1.75-4.47,1.2-2.58,2.1-3.59,1.96-1.82,3.17-2.39c1.21-.57,2.54-.86,3.97-.86,1.63,0,2.9.42,3.82,1.25.92.83,1.38,1.99,1.38,3.46,0,1.19-.31,2.24-.93,3.16s-1.47,1.62-2.57,2.13c-1.09.51-2.38.76-3.85.76-.58,0-1.17-.04-1.74-.11-.58-.08-1.12-.18-1.64-.31l.1-1.3h.85c1.13,0,2.1-.21,2.93-.62.82-.41,1.46-.99,1.92-1.74.46-.75.68-1.62.68-2.62,0-.61-.16-1.1-.47-1.48-.31-.38-.73-.57-1.25-.57-.74,0-1.38.3-1.94.89-.55.6-1.02,1.38-1.4,2.34-.38.97-.66,1.99-.85,3.07-.18,1.08-.28,2.11-.28,3.09,0,1.76.26,3.1.8,4.03.53.93,1.29,1.4,2.29,1.4,1.89,0,3.55-1.06,4.98-3.19.78.2,1.17.6,1.17,1.2-.89,1.41-1.98,2.49-3.29,3.25-1.3.76-2.73,1.14-4.29,1.14Z" style="fill: #336535;"/>
          <path d="m76.7,27.39c-.48,1.19-1.09,2.21-1.85,3.04-.76.83-1.59,1.48-2.5,1.92-.91.44-1.83.67-2.77.67-.85,0-1.63-.23-2.36-.68s-1.31-1.17-1.74-2.13-.65-2.18-.65-3.66c0-1.8.25-3.45.75-4.95.5-1.5,1.2-2.8,2.1-3.9.9-1.11,1.96-1.96,3.17-2.57,1.21-.61,2.54-.91,3.97-.91.5,0,.99.05,1.46.15.48.1.89.23,1.24.41-1.41.37-2.61.97-3.61,1.81-1,.83-1.81,1.8-2.44,2.9-.63,1.09-1.09,2.22-1.38,3.37-.29,1.15-.44,2.23-.44,3.25,0,.74.08,1.4.24,1.98.16.59.42,1.05.76,1.38.35.34.8.5,1.37.5.82,0,1.55-.33,2.18-.99.63-.66,1.18-1.56,1.66-2.7.48-1.14.88-2.42,1.22-3.85s.62-2.93.85-4.49c.23-1.56.41-3.09.54-4.6.13-1.51.22-2.9.28-4.18.05-1.28.08-2.35.08-3.22s-.02-1.64-.05-2.39c-.03-.75-.1-1.42-.21-2,1.11.24,1.96.67,2.57,1.3.61.63,1.04,1.4,1.28,2.31s.37,1.95.37,3.12c0,1.3-.11,2.74-.33,4.31s-.47,3.24-.76,4.99c-.29,1.76-.55,3.57-.76,5.45-.22,1.88-.33,3.77-.33,5.68,0,1.54.1,3.06.29,4.55-1.06-.3-1.88-.74-2.46-1.32-.57-.58-.98-1.25-1.2-2.03-.23-.78-.35-1.62-.37-2.5h-.16Z" style="fill: #336535;"/>
          <path d="m91.73,33.15c-1.3,0-2.43-.33-3.4-.98-.97-.65-1.71-1.57-2.23-2.76s-.78-2.59-.78-4.2.25-3.1.75-4.47,1.2-2.58,2.1-3.59c.9-1.02,1.96-1.82,3.17-2.39,1.21-.57,2.54-.86,3.97-.86,1.63,0,2.9.42,3.82,1.25.92.83,1.38,1.99,1.38,3.46,0,1.19-.31,2.24-.93,3.16s-1.47,1.62-2.57,2.13c-1.09.51-2.38.76-3.85.76-.58,0-1.17-.04-1.74-.11-.58-.08-1.12-.18-1.64-.31l.1-1.3h.85c1.13,0,2.1-.21,2.93-.62.82-.41,1.46-.99,1.92-1.74.46-.75.68-1.62.68-2.62,0-.61-.16-1.1-.47-1.48-.31-.38-.73-.57-1.25-.57-.74,0-1.38.3-1.94.89-.55.6-1.02,1.38-1.4,2.34-.38.97-.66,1.99-.85,3.07-.18,1.08-.28,2.11-.28,3.09,0,1.76.26,3.1.8,4.03.53.93,1.29,1.4,2.29,1.4,1.89,0,3.55-1.06,4.98-3.19.78.2,1.17.6,1.17,1.2-.89,1.41-1.98,2.49-3.29,3.25-1.3.76-2.73,1.14-4.29,1.14Z" style="fill: #336535;"/>
        </g>
      </g>
      <g id="g3850">
        <path id="path3055" d="m12.23,1.18S7.66.02,4.35,4.35C1.05,8.68.21,16.84.25,16.87c.04.03,7.38-3.16,10.68-7.49,3.31-4.33,1.34-8.16,1.3-8.2h0Z" style="fill: #55963d; fill-rule: evenodd; stroke: #336535; stroke-miterlimit: 1.59; stroke-width: .5px;"/>
        <path id="path3062" d="m11.71,1.77L2.07,14.39" style="fill: none; stroke: #336535; stroke-linecap: round; stroke-linejoin: round; stroke-width: .5px;"/>
        <path id="path3068" d="m5.57,5.07c2.6-.11,4.08,1.16,4.66,3.56" style="fill: none; stroke: #336535; stroke-linecap: round; stroke-linejoin: round; stroke-width: .5px;"/>
        <path id="path3070" d="m5.57,5.07c2.6-.11,4.08,1.16,4.66,3.56" style="fill: none; stroke: #336535; stroke-linecap: round; stroke-linejoin: round; stroke-width: .5px;"/>
        <path id="path3072" d="m7.43,3.33c2.22-.09,3.49,1,3.99,3.05" style="fill: none; stroke: #336535; stroke-linecap: round; stroke-linejoin: round; stroke-width: .5px;"/>
        <path id="path3074" d="m4.3,7.18c2.35-.1,3.7,1.06,4.23,3.23" style="fill: none; stroke: #336535; stroke-linecap: round; stroke-linejoin: round; stroke-width: .5px;"/>
        <path id="path3076" d="m3.2,9.67c1.78-.06,2.81.82,3.22,2.46" style="fill: none; stroke: #336535; stroke-linecap: round; stroke-linejoin: round; stroke-width: .5px;"/>
        <path id="path3078" d="m2.75,11.85c.91,0,1.45.45,1.68,1.28" style="fill: none; stroke: #336535; stroke-linecap: round; stroke-linejoin: round; stroke-width: .5px;"/>
        <path id="path3848" d="m12.23,1.09c.97-1.16,2.92-1.04,3.99-.15" style="fill: none; stroke: #336535; stroke-miterlimit: 1.59; stroke-width: .5px;"/>
      </g>
    </g>
  </g>
</svg>